# xmcd
#
# Track frame offsets:
#	150
#	13337
#	30746
#	49275
#	64477
#	81635
#	94197
#	110463
#	127388
#	143120
#	157814
#	172534
#	189334
#	204458
#	205089
#	205734
#	206320
#	207051
#	207707
#	208646
#	209292
#	209961
#	210605
#	211387
#	212168
#	212847
#
# Disc length: 2844 seconds
#
# Revision: 1
# Processed by: cddbd v1.5.2PL0 Copyright (c) Steve Scherf et al.
# Submitted via: audiograbber 1.83.01
#
DISCID=a80b1a1a
DTITLE=Various Artist - CDX Volume 572 (June 10, 2013)
DYEAR=2013
DGENRE=Country
TTITLE0=Lauren Alaina - Barefoot And Buckwild
TTITLE1=Love And Theft - If You Ever Get Lonely
TTITLE2=Chris Stapleton - What Are You Listening To
TTITLE3=Rob Baird - Dreams and Gasoline
TTITLE4=Aaron Lewis - Granddaddy's Gun
TTITLE5=Cerrito - Hot Pepper Doll
TTITLE6=Kayla Calabrese - Kiss Me
TTITLE7=Sherry Kennedy - Mama He Treats Your Daughter Mean
TTITLE8=Denae Gardner - Sound Of A Woman Sayin' Goodbye
TTITLE9=Philip Claypool - Strong One
TTITLE10=Taylor Made - That's How I Roll 
TTITLE11=Livewire - Whiskey Sunday
TTITLE12=Clinton Gregory - You Smile
TTITLE13=Collin Raye - Radio Liner - Best in Country Music
TTITLE14=Collin Raye - Radio Liner - Home Town Country
TTITLE15=Collin Raye - Radio Liner - Kickin' Country
TTITLE16=Collin Raye - Radio Liner - Super Country, the Greatest Hits of All Ti
TTITLE16=me
TTITLE17=Collin Raye - Radio Liner - Today's Best Country
TTITLE18=Collin Raye - Radio Liner - Today's Best in Country, Including My Song
TTITLE19=Collin Raye - Radio Liner - Today's Hot Country Music
TTITLE20=Teea Goans - Radio Liner - Home Town Country
TTITLE21=Teea Goans - Radio Liner - Kickin' Country
TTITLE22=Teea Goans - Radio Liner - Super Country Greatest Hits of All Time
TTITLE23=Teea Goans - Radio Liner - The Best In Today's Hot New Country Music
TTITLE24=Teea Goans - Radio Liner - Today's Best Country
TTITLE25=Teea Goans - Radio Liner - Today's Hot Country Music
EXTD=
EXTT0=
EXTT1=
EXTT2=
EXTT3=
EXTT4=
EXTT5=
EXTT6=
EXTT7=
EXTT8=
EXTT9=
EXTT10=
EXTT11=
EXTT12=
EXTT13=
EXTT14=
EXTT15=
EXTT16=
EXTT17=
EXTT18=
EXTT19=
EXTT20=
EXTT21=
EXTT22=
EXTT23=
EXTT24=
EXTT25=
PLAYORDER=
